<svg xmlns="http://www.w3.org/2000/svg" version="1.1" xmlns:xlink="http://www.w3.org/1999/xlink" xmlns:svgjs="http://svgjs.dev/svgjs" width="2000" height="2250" viewBox="0 0 2000 2250"><g transform="matrix(1,0,0,1,0,0)"><svg viewBox="0 0 320 360" data-background-color="#ffffff" preserveAspectRatio="xMidYMid meet" height="2250" width="2000" xmlns="http://www.w3.org/2000/svg" xmlns:xlink="http://www.w3.org/1999/xlink"><g id="tight-bounds" transform="matrix(1,0,0,1,0,0)"><svg viewBox="0 0 320 360" height="360" width="320"><g><svg></svg></g><g><svg viewBox="0 0 320 360" height="360" width="320"><g><path xmlns="http://www.w3.org/2000/svg" d="M39.474 120.804l2.852-5.236c22.696-41.686 66.871-69.977 117.674-69.972 50.817 0 95.006 28.305 117.697 70.005l2.852 5.241 8.173-31.337 31.03 7.961-2.654-4.792c-30.586-55.251-89.468-92.674-157.098-92.674-67.631 0-126.508 37.423-157.103 92.674l-2.654 4.787 31.063-7.956zM160 4.721c63.839 0 119.567 34.288 150.073 85.389l-24.731-6.341-6.417 24.608c-24.217-40.411-68.381-67.503-118.925-67.503-50.525 0-94.68 27.078-118.897 67.465l-6.412-24.575-24.764 6.341c30.506-51.101 86.238-85.384 150.073-85.384zM280.526 239.191l-2.852 5.236c-22.696 41.691-66.871 69.977-117.674 69.977-50.817 0-95.006-28.301-117.697-70.005l-2.852-5.236-8.173 31.332-31.035-7.961 2.654 4.792c30.591 55.246 89.468 92.674 157.103 92.674 67.631 0 126.513-37.427 157.103-92.674l2.654-4.787-31.063 7.956zM160 355.279c-63.839 0-119.567-34.288-150.073-85.389l24.727 6.346 6.421-24.609c24.217 40.402 68.381 67.499 118.925 67.499 50.529 0 94.68-27.078 118.901-67.47l6.408 24.575 24.764-6.341c-30.506 51.096-86.233 85.388-150.073 85.388z" fill="#ed2647" fill-rule="nonzero" stroke="none" stroke-width="1" stroke-linecap="butt" stroke-linejoin="miter" stroke-miterlimit="10" stroke-dasharray="" stroke-dashoffset="0" font-family="none" font-weight="none" font-size="none" text-anchor="none" style="mix-blend-mode: normal" data-fill-palette-color="tertiary"></path></g><g transform="matrix(1,0,0,1,95.16272189349112,90)"><svg viewBox="0 0 129.67455621301775 180" height="180" width="129.67455621301775"><g><svg viewBox="0 0 129.67455621301775 180" height="180" width="129.67455621301775"><g><svg viewBox="0 0 129.67455621301775 180" height="180" width="129.67455621301775"><g><svg viewBox="0 0 129.67455621301775 180" height="180" width="129.67455621301775"><g id="textblocktransform"><svg viewBox="0 0 129.67455621301775 180" height="180" width="129.67455621301775" id="textblock"><g><svg viewBox="0 0 129.67455621301775 180" height="180" width="129.67455621301775"><g transform="matrix(1,0,0,1,0,0)"><svg width="129.67455621301775" viewBox="1.75 -33.20000076293945 24.350000381469727 33.79999923706055" height="180" data-palette-color="#ed2647"><path d="M13.8 0.6L13.8 0.6Q10.6 0.6 7.43-0.58 4.25-1.75 1.75-4.1L1.75-4.1 5.95-9.15Q7.7-7.65 9.83-6.7 11.95-5.75 14-5.75L14-5.75Q16.3-5.75 17.43-6.6 18.55-7.45 18.55-8.9L18.55-8.9Q18.55-9.65 18.23-10.2 17.9-10.75 17.28-11.18 16.65-11.6 15.78-11.98 14.9-12.35 13.85-12.8L13.85-12.8 9.6-14.6Q8.35-15.1 7.18-15.9 6-16.7 5.08-17.78 4.15-18.85 3.6-20.28 3.05-21.7 3.05-23.5L3.05-23.5Q3.05-25.5 3.9-27.28 4.75-29.05 6.3-30.38 7.85-31.7 9.98-32.45 12.1-33.2 14.65-33.2L14.65-33.2Q17.5-33.2 20.28-32.1 23.05-31 25.15-28.9L25.15-28.9 21.4-24.25Q19.8-25.5 18.2-26.18 16.6-26.85 14.65-26.85L14.65-26.85Q12.75-26.85 11.63-26.08 10.5-25.3 10.5-23.9L10.5-23.9Q10.5-23.15 10.88-22.63 11.25-22.1 11.93-21.68 12.6-21.25 13.5-20.88 14.4-20.5 15.45-20.05L15.45-20.05 19.65-18.35Q22.65-17.15 24.38-15.05 26.1-12.95 26.1-9.5L26.1-9.5Q26.1-7.45 25.28-5.63 24.45-3.8 22.88-2.43 21.3-1.05 19-0.23 16.7 0.6 13.8 0.6Z" opacity="1" transform="matrix(1,0,0,1,0,0)" fill="#ed2647" class="undefined-text-0" data-fill-palette-color="primary" id="text-0"></path></svg></g></svg></g></svg></g></svg></g><g></g></svg></g></svg></g></svg></g></svg></g><defs></defs></svg><rect width="320" height="360" fill="none" stroke="none" visibility="hidden"></rect></g></svg></g></svg>