<svg xmlns="http://www.w3.org/2000/svg" version="1.1" xmlns:xlink="http://www.w3.org/1999/xlink" xmlns:svgjs="http://svgjs.dev/svgjs" width="308.7612359841165" height="304.915625" viewBox="0 0 1000 1125"><g transform="matrix(1,0,0,1,0,0)"><svg viewBox="0 0 320 360" data-background-color="#ffffff" preserveAspectRatio="xMidYMid meet" height="1125" width="1000" xmlns="http://www.w3.org/2000/svg" xmlns:xlink="http://www.w3.org/1999/xlink"><g id="tight-bounds" transform="matrix(1,0,0,1,0,0)"><svg viewBox="0 0 320 360" height="360" width="320"><g><svg></svg></g><g><svg viewBox="0 0 320 360" height="360" width="320"><g><path xmlns="http://www.w3.org/2000/svg" d="M39.474 120.804l2.852-5.236c22.696-41.686 66.871-69.977 117.674-69.972 50.817 0 95.006 28.305 117.697 70.005l2.852 5.241 8.173-31.337 31.03 7.961-2.654-4.792c-30.586-55.251-89.468-92.674-157.098-92.674-67.631 0-126.508 37.423-157.103 92.674l-2.654 4.787 31.063-7.956zM160 4.721c63.839 0 119.567 34.288 150.073 85.389l-24.731-6.341-6.417 24.608c-24.217-40.411-68.381-67.503-118.925-67.503-50.525 0-94.68 27.078-118.897 67.465l-6.412-24.575-24.764 6.341c30.506-51.101 86.238-85.384 150.073-85.384zM280.526 239.191l-2.852 5.236c-22.696 41.691-66.871 69.977-117.674 69.977-50.817 0-95.006-28.301-117.697-70.005l-2.852-5.236-8.173 31.332-31.035-7.961 2.654 4.792c30.591 55.246 89.468 92.674 157.103 92.674 67.631 0 126.513-37.427 157.103-92.674l2.654-4.787-31.063 7.956zM160 355.279c-63.839 0-119.567-34.288-150.073-85.389l24.727 6.346 6.421-24.609c24.217 40.402 68.381 67.499 118.925 67.499 50.529 0 94.68-27.078 118.901-67.47l6.408 24.575 24.764-6.341c-30.506 51.096-86.233 85.388-150.073 85.388z" fill="#ff0000" fill-rule="nonzero" stroke="none" stroke-width="1" stroke-linecap="butt" stroke-linejoin="miter" stroke-miterlimit="10" stroke-dasharray="" stroke-dashoffset="0" font-family="none" font-weight="none" font-size="none" text-anchor="none" style="mix-blend-mode: normal" data-fill-palette-color="tertiary"></path></g><g transform="matrix(1,0,0,1,70.08999999999999,90.08999999999999)"><svg viewBox="0 0 179.82000000000002 179.82000000000002" height="179.82000000000002" width="179.82000000000002"><g><svg viewBox="0 0 179.82000000000002 179.82000000000002" height="179.82000000000002" width="179.82000000000002"><g><svg viewBox="0 0 179.82000000000002 179.82000000000002" height="179.82000000000002" width="179.82000000000002"><g id="textblocktransform"><svg viewBox="0 0 179.82000000000002 179.82000000000002" height="179.82000000000002" width="179.82000000000002" id="textblock"><g><svg viewBox="0 0 179.82000000000002 179.82000000000002" height="179.82000000000002" width="179.82000000000002"><g transform="matrix(1,0,0,1,47.52653435455941,47.526019535678344)"><svg viewBox="0 0 84.7669312908812 84.76796092864333" height="84.76796092864333" width="84.7669312908812"><g><svg xmlns="http://www.w3.org/2000/svg" xmlns:xlink="http://www.w3.org/1999/xlink" version="1.1" x="0" y="0" viewBox="5.412825107574463 5.195577621459961 79.76930236816406 79.77027130126953" enable-background="new 0 0 90 90" xml:space="preserve" height="84.76796092864333" width="84.7669312908812" class="icon-o-0" data-fill-palette-color="accent" id="o-0"><path d="M54.624 83.27c-10.792 1.801-22.246-1.411-30.727-8.272-8.062-6.522-13.088-16.744-12.728-27.17 0.349-10.096 5.499-20.182 14.078-25.707 8.769-5.647 20.783-5.62 29.498 0.129 8.154 5.379 12.661 15.857 9.907 25.391-1.424 4.931-4.572 9.475-9.052 12.082-4.663 2.714-10.561 3.268-15.615 1.341-4.544-1.733-8.418-5.448-9.851-10.154-1.47-4.826-0.243-10.416 3.327-14.027 3.452-3.492 8.998-4.743 13.484-2.567 4.259 2.065 6.884 7.148 5.307 11.755-0.85 2.483-2.859 4.611-5.423 5.317-2.69 0.741-5.774-0.221-7.439-2.493-1.629-2.222-1.495-5.503 0.597-7.389 1.054-0.95 2.599-1.429 3.984-1.015 0.41 0.122 2.233 0.566 2.058 1.209 0.087-0.652-1.341-0.82-1.755-0.934-1.29-0.356-2.733 0.004-3.719 0.904-1.739 1.586-1.995 4.459-0.597 6.34 1.417 1.906 4.102 2.721 6.348 1.971 2.287-0.765 3.875-3.013 4.245-5.344 0.746-4.703-3.812-8.759-8.323-8.569-4.774 0.201-8.548 4.373-9.111 8.971-1.056 8.621 8.8 14.488 16.466 12.536 8.546-2.177 12.86-12.372 10.766-20.465-2.34-9.045-11.891-14.664-20.877-14.543-9.785 0.131-18.28 7.23-21.955 16.011-4.038 9.649-2.194 21.17 4.201 29.364 6.485 8.309 16.93 13.113 27.352 13.664 5.766 0.305 11.749-0.537 17.004-3.006 4.955-2.328 8.907-6.258 11.976-10.734 6.303-9.194 8.662-20.938 6.135-31.824C79.845 17.355 61.052 3.689 41.936 5.329 23.164 6.939 7.154 22.991 5.551 41.756c-0.918 10.74 2.777 21.76 9.928 29.817 7.078 7.976 17.424 12.875 28.071 13.353 6.118 0.275 12.303-0.876 17.903-3.359-2.472 0.844-4.993 1.695-7.622 1.838 0.506-0.028 0.982-0.246 1.492-0.242-1.79-0.014-3.465 0.776-5.242 0.87 1.034-0.055 2.103-0.271 3.095-0.566 0.337-0.101 1.458-0.578 1.755-0.242-0.207-0.235-1.358 0.182-1.613 0.243-0.926 0.221-1.953 0.452-2.902 0.51 0.426-0.026 4.536-0.711 4.53-0.755 0.008 0.065-4.022 0.607-4.613 0.769 0.714-0.196 1.505-0.245 2.235-0.367 0.292-0.048 2.164-0.591 2.374-0.402C54.91 83.194 54.661 83.264 54.624 83.27 43.928 85.055 57.114 82.88 54.624 83.27z" fill="#f60e34" data-fill-palette-color="accent"></path></svg></g></svg></g><path d="M13.135 117.079c-0.593-1.664-0.752-3.11-0.477-4.337 0.275-1.227 1.063-2.073 2.364-2.536v0c0.692-0.247 1.262-0.315 1.711-0.207 0.449 0.109 0.756 0.396 0.922 0.862v0c0.119 0.334 0.127 0.64 0.025 0.919-0.096 0.276-0.282 0.463-0.556 0.561v0c-0.251 0.089-0.479 0.147-0.685 0.173v0c-0.048 0.017-0.137 0.039-0.269 0.066-0.132 0.027-0.266 0.065-0.403 0.113v0c-0.567 0.202-0.885 0.638-0.956 1.309-0.073 0.664 0.074 1.51 0.44 2.535v0c0.38 1.068 0.868 1.832 1.462 2.293 0.596 0.466 1.238 0.578 1.924 0.333v0c0.429-0.153 0.747-0.421 0.953-0.804 0.212-0.385 0.346-0.822 0.4-1.312 0.062-0.486 0.108-1.158 0.139-2.016v0c0.034-1.094 0.112-2.006 0.236-2.735 0.117-0.727 0.392-1.41 0.823-2.048 0.429-0.644 1.074-1.119 1.933-1.425v0c0.901-0.321 1.789-0.365 2.665-0.133 0.876 0.232 1.669 0.733 2.38 1.502 0.711 0.769 1.285 1.767 1.723 2.996v0c0.325 0.913 0.487 1.8 0.484 2.661 0.004 0.859-0.187 1.616-0.572 2.271-0.387 0.649-0.984 1.117-1.789 1.404v0c-0.787 0.281-1.423 0.373-1.908 0.276-0.483-0.09-0.807-0.368-0.973-0.833v0c-0.117-0.328-0.115-0.635 0.005-0.92 0.124-0.293 0.323-0.488 0.598-0.586v0c0.239-0.085 0.466-0.146 0.681-0.182v0c0.389-0.098 0.631-0.164 0.726-0.198v0c0.531-0.189 0.842-0.589 0.934-1.2 0.092-0.611 0.001-1.298-0.27-2.061v0c-0.383-1.074-0.873-1.827-1.471-2.26-0.596-0.426-1.251-0.512-1.967-0.257v0c-0.477 0.17-0.831 0.461-1.061 0.872-0.234 0.419-0.386 0.887-0.458 1.404-0.072 0.516-0.121 1.226-0.148 2.13v0c-0.05 1.087-0.13 1.976-0.24 2.667-0.106 0.683-0.355 1.323-0.748 1.92-0.39 0.603-0.982 1.046-1.775 1.328v0c-1.473 0.525-2.81 0.369-4.009-0.468-1.193-0.839-2.124-2.198-2.793-4.077zM30.882 129.117c-0.31-0.47-0.434-0.893-0.371-1.269 0.063-0.376 0.29-0.692 0.682-0.951v0c0.386-0.255 0.809-0.314 1.27-0.178 0.467 0.132 0.85 0.425 1.15 0.88v0c0.269 0.407 0.388 0.806 0.358 1.197-0.033 0.386-0.232 0.7-0.597 0.941v0c-0.444 0.293-0.891 0.38-1.342 0.26-0.453-0.111-0.836-0.404-1.15-0.88zM21.866 134.874c-0.478-0.724-0.57-1.415-0.274-2.072 0.296-0.666 0.865-1.276 1.705-1.831v0c0.497-0.328 1.178-0.687 2.044-1.076 0.866-0.389 1.703-0.707 2.512-0.953v0c0.426-0.137 0.759-0.167 0.999-0.09 0.244 0.082 0.486 0.305 0.727 0.67v0c0.373 0.566 0.372 0.972-0.003 1.219v0c-0.28 0.185-0.995 0.505-2.144 0.96v0c-1.395 0.542-2.31 0.955-2.743 1.241v0c-0.333 0.22-0.559 0.429-0.677 0.63-0.12 0.208-0.111 0.418 0.028 0.629v0c0.133 0.201 0.437 0.357 0.912 0.468 0.474 0.12 1.177 0.232 2.112 0.337v0c0.24 0.031 0.415 0.128 0.523 0.292v0c0.094 0.143 0.103 0.3 0.027 0.472-0.076 0.172-0.231 0.334-0.464 0.487v0c-0.444 0.293-0.86 0.416-1.248 0.369v0c-2.063-0.217-3.408-0.801-4.036-1.752zM30.075 145.073c-0.369-0.347-0.451-0.783-0.243-1.31 0.216-0.527 0.725-1.217 1.526-2.071v0c1.183-1.261 2.485-2.288 3.907-3.082v0c0.347-0.204 0.683-0.279 1.008-0.227 0.32 0.057 0.66 0.254 1.02 0.593v0c0.194 0.182 0.306 0.335 0.337 0.459 0.035 0.12-0.01 0.247-0.136 0.381v0c-0.147 0.157-0.55 0.439-1.209 0.845v0c-0.461 0.297-0.851 0.56-1.171 0.79-0.329 0.23-0.713 0.542-1.153 0.937v0c0.969-0.515 1.881-0.862 2.736-1.041 0.859-0.184 1.599-0.224 2.22-0.118 0.621 0.097 1.103 0.305 1.445 0.626v0c0.337 0.316 0.504 0.62 0.499 0.911-0.004 0.282-0.158 0.585-0.461 0.908v0c-0.29 0.309-0.909 0.784-1.857 1.424v0c-0.399 0.277-0.697 0.488-0.893 0.633v0c1.603-0.737 2.953-1.098 4.051-1.083 1.102 0.01 1.91 0.255 2.423 0.735v0c0.633 0.594 0.652 1.207 0.058 1.84v0c-0.351 0.374-1.096 0.956-2.236 1.745v0c-0.978 0.672-1.594 1.144-1.849 1.416v0c-0.364 0.388-0.405 0.714-0.124 0.978v0c0.194 0.182 0.535 0.276 1.024 0.284 0.489 0.016 1.209-0.034 2.159-0.15v0c0.241-0.026 0.433 0.029 0.577 0.163v0c0.125 0.117 0.17 0.268 0.135 0.453-0.034 0.185-0.147 0.379-0.338 0.582v0c-0.364 0.388-0.74 0.604-1.128 0.647v0c-0.897 0.123-1.739 0.123-2.527 0-0.788-0.123-1.487-0.47-2.096-1.042v0c-0.494-0.464-0.736-0.955-0.726-1.475 0.019-0.52 0.284-1.053 0.796-1.598v0c0.256-0.272 0.778-0.695 1.565-1.266v0c0.697-0.493 1.153-0.854 1.37-1.086v0c0.147-0.157 0.168-0.285 0.062-0.385v0c-0.125-0.117-0.454-0.122-0.988-0.015-0.543 0.107-1.179 0.318-1.909 0.632-0.734 0.319-1.451 0.705-2.154 1.158v0c-0.539 0.362-0.952 0.557-1.238 0.583-0.286 0.018-0.584-0.118-0.893-0.408v0c-0.319-0.299-0.416-0.677-0.292-1.133 0.129-0.452 0.397-0.895 0.805-1.329v0c0.347-0.369 0.896-0.857 1.646-1.464v0c0.654-0.55 1.073-0.921 1.255-1.115v0c0.147-0.157 0.168-0.285 0.062-0.386v0c-0.143-0.134-0.493-0.132-1.049 0.007-0.547 0.138-1.179 0.383-1.898 0.733-0.715 0.345-1.381 0.723-2 1.132v0c-0.531 0.353-0.944 0.543-1.239 0.571-0.286 0.027-0.579-0.1-0.879-0.382zM59.217 160.334c0.158 0.08 0.244 0.212 0.257 0.396 0.019 0.187-0.034 0.405-0.159 0.653v0c-0.239 0.475-0.539 0.788-0.899 0.94v0c-0.825 0.371-1.633 0.609-2.424 0.714-0.79 0.105-1.559-0.031-2.306-0.407v0c-0.628-0.316-1.024-0.796-1.188-1.439v0c-0.898 0.093-1.717-0.04-2.459-0.399v0c-1.307 2.213-2.623 3.95-3.947 5.211-1.324 1.262-2.512 1.627-3.563 1.097v0c-0.645-0.325-1.003-0.796-1.074-1.414-0.077-0.62 0.089-1.338 0.5-2.152v0c0.587-1.165 1.54-2.386 2.858-3.665 1.313-1.281 2.995-2.571 5.047-3.87v0c0.875-1.736 1.471-2.946 1.788-3.63v0c0.163-0.351 0.437-0.556 0.822-0.618 0.388-0.053 0.794 0.028 1.218 0.242v0c0.249 0.125 0.406 0.265 0.47 0.418 0.062 0.159 0.023 0.391-0.117 0.696v0c-0.148 0.294-0.25 0.516-0.304 0.666v0c0.618-0.284 1.163-0.435 1.633-0.453 0.473-0.024 0.916 0.068 1.329 0.276v0c0.667 0.336 1.076 0.876 1.226 1.619 0.153 0.751 0.012 1.559-0.424 2.424v0c-0.316 0.628-0.726 1.187-1.229 1.678-0.503 0.491-1.055 0.89-1.657 1.197v0c0.212 0.199 0.402 0.341 0.572 0.426v0c0.39 0.197 0.836 0.241 1.338 0.132 0.499-0.103 1.196-0.347 2.093-0.732v0c0.224-0.093 0.424-0.095 0.599-0.006zM50.984 159.129c0.478 0.121 0.992 0.085 1.542-0.105 0.55-0.191 1.072-0.509 1.566-0.955 0.486-0.443 0.881-0.967 1.187-1.572v0c0.18-0.356 0.246-0.663 0.198-0.921-0.05-0.252-0.194-0.438-0.431-0.558v0c-0.424-0.214-1.165-0.024-2.224 0.571v0c-0.282 0.517-0.677 1.279-1.184 2.285v0c-0.277 0.548-0.495 0.967-0.654 1.255zM43.554 165.426c0.317 0.16 0.933-0.402 1.849-1.685 0.919-1.288 1.93-2.956 3.033-5.002v0c-1.108 0.931-2.081 1.862-2.919 2.794-0.844 0.929-1.452 1.761-1.822 2.496v0c-0.191 0.379-0.293 0.693-0.305 0.942-0.009 0.244 0.045 0.395 0.164 0.455zM73.049 165.106c0.164 0.047 0.273 0.161 0.327 0.341 0.054 0.18 0.042 0.404-0.034 0.672v0c-0.146 0.511-0.382 0.875-0.708 1.092v0c-0.741 0.519-1.497 0.902-2.266 1.149-0.769 0.248-1.565 0.254-2.386 0.019v0c-1.12-0.321-1.806-1.067-2.056-2.239-0.255-1.18-0.15-2.582 0.315-4.208v0c0.446-1.559 1.158-3.275 2.136-5.149 0.973-1.882 2.058-3.426 3.252-4.631 1.195-1.206 2.334-1.654 3.418-1.344v0c0.615 0.176 1.017 0.601 1.206 1.274 0.185 0.666 0.126 1.528-0.177 2.588v0c-0.436 1.522-1.361 3.167-2.776 4.935-1.42 1.761-3.132 3.418-5.139 4.972v0c-0.059 0.55-0.02 0.966 0.117 1.248 0.143 0.285 0.381 0.475 0.716 0.571v0c0.524 0.15 1.027 0.129 1.51-0.062 0.481-0.185 1.131-0.556 1.948-1.112v0c0.209-0.131 0.408-0.17 0.597-0.116zM74.083 152.588c-0.292-0.084-0.776 0.351-1.45 1.304-0.676 0.959-1.379 2.184-2.109 3.674-0.73 1.491-1.316 2.953-1.76 4.387v0c1.336-1.238 2.489-2.528 3.46-3.871 0.966-1.35 1.626-2.643 1.98-3.879v0c0.279-0.974 0.239-1.513-0.121-1.615zM90.275 166.93c0.171 0.011 0.301 0.102 0.392 0.273 0.09 0.177 0.127 0.392 0.111 0.645v0c-0.019 0.303-0.082 0.537-0.187 0.701-0.099 0.165-0.254 0.307-0.465 0.428v0l-3.984 2.326c-0.68 2.711-1.478 4.827-2.393 6.348-0.915 1.522-2.002 2.243-3.259 2.163v0c-0.676-0.043-1.213-0.287-1.61-0.731-0.397-0.444-0.574-1.004-0.531-1.68v0c0.04-0.626 0.223-1.255 0.549-1.888 0.326-0.633 0.904-1.345 1.734-2.136 0.824-0.791 1.982-1.686 3.474-2.682v0l0.086-0.461c0.126-0.481 0.278-1.175 0.456-2.084v0c-0.326 0.937-0.745 1.64-1.257 2.11-0.505 0.463-1.023 0.677-1.554 0.643v0c-0.6-0.038-1.07-0.344-1.408-0.917-0.344-0.574-0.49-1.272-0.438-2.094v0c0.063-0.992 0.187-1.898 0.373-2.717 0.185-0.819 0.459-1.684 0.822-2.594v0c0.158-0.39 0.363-0.665 0.614-0.827 0.245-0.156 0.626-0.217 1.144-0.184v0c0.291 0.018 0.49 0.079 0.598 0.181 0.108 0.096 0.156 0.238 0.144 0.428v0c-0.007 0.107-0.102 0.46-0.286 1.057v0c-0.164 0.484-0.297 0.923-0.398 1.317v0c-0.142 0.537-0.27 1.052-0.384 1.546-0.107 0.488-0.171 0.893-0.191 1.215v0c-0.032 0.499 0.091 0.758 0.369 0.776v0c0.196 0.012 0.455-0.171 0.778-0.55 0.329-0.379 0.686-0.962 1.072-1.75 0.393-0.787 0.784-1.759 1.175-2.914v0c0.133-0.391 0.312-0.669 0.539-0.832 0.232-0.157 0.566-0.221 1.002-0.193v0c0.303 0.019 0.512 0.074 0.627 0.163 0.115 0.083 0.167 0.22 0.155 0.41v0c-0.021 0.329-0.264 1.458-0.73 3.39v0l-0.724 3.161c1.072-0.7 2.112-1.338 3.12-1.914v0c0.177-0.097 0.333-0.141 0.465-0.133zM80.831 177.894c0.329 0.021 0.726-0.338 1.191-1.076 0.46-0.745 0.952-1.999 1.477-3.761v0c-1.078 0.794-1.868 1.531-2.368 2.21-0.506 0.678-0.776 1.283-0.81 1.814v0c-0.014 0.228 0.018 0.417 0.097 0.568 0.079 0.151 0.217 0.233 0.413 0.245zM101.838 170.852c-0.682 0.109-1.229 0.032-1.643-0.228-0.406-0.256-0.641-0.581-0.704-0.975v0c-0.055-0.344 0.02-0.657 0.226-0.94 0.21-0.29 0.559-0.474 1.047-0.552v0c0.169-0.027 0.371-0.043 0.608-0.049 0.236-0.006 0.415-0.012 0.535-0.018v0c-0.073-0.335-0.202-0.644-0.388-0.928-0.185-0.278-0.404-0.542-0.655-0.791-0.257-0.248-0.494-0.463-0.709-0.647v0c-0.283 0.84-0.584 1.549-0.902 2.126-0.319 0.577-0.679 1.131-1.082 1.663v0c-0.2 0.275-0.431 0.434-0.693 0.476v0c-0.206 0.033-0.387-0.015-0.543-0.145-0.155-0.129-0.251-0.306-0.287-0.531v0c-0.042-0.263 0.01-0.521 0.156-0.775v0l0.213-0.352c0.577-1.009 1.004-1.83 1.281-2.464v0c0.158-0.416 0.34-0.968 0.545-1.655 0.199-0.686 0.387-1.392 0.566-2.119v0c0.158-0.615 0.632-0.986 1.42-1.111v0c0.369-0.059 0.631-0.065 0.785-0.02 0.154 0.04 0.242 0.131 0.266 0.275v0c0.013 0.081 0.005 0.211-0.025 0.389-0.023 0.177-0.068 0.36-0.134 0.55v0c-0.157 0.506-0.209 0.925-0.155 1.256v0c0.031 0.194 0.134 0.399 0.309 0.615 0.175 0.216 0.435 0.476 0.778 0.78v0c0.507 0.484 0.9 0.902 1.181 1.255 0.274 0.354 0.448 0.762 0.522 1.225v0c0.021 0.131 0.037 0.315 0.05 0.55v0c0.604-0.353 1.252-1.136 1.944-2.349v0c0.134-0.207 0.297-0.326 0.491-0.357v0c0.169-0.027 0.316 0.03 0.441 0.17 0.125 0.14 0.209 0.348 0.253 0.623v0c0.08 0.5 0.02 0.93-0.18 1.289v0c-0.527 0.918-1.067 1.571-1.621 1.961-0.547 0.389-1.26 0.666-2.137 0.831v0c-0.454 0.534-1.04 0.858-1.759 0.972zM117.651 166.44c-0.766 0.301-1.488 0.265-2.165-0.109-0.677-0.373-1.195-1.014-1.551-1.921v0c-0.387-0.984-0.524-2.009-0.412-3.074 0.11-1.071 0.44-2.023 0.989-2.858 0.55-0.835 1.252-1.421 2.106-1.757v0c0.271-0.107 0.475-0.125 0.611-0.056 0.13 0.071 0.281 0.23 0.452 0.475v0c0.238-0.155 0.499-0.288 0.782-0.399v0c0.607-0.239 0.996-0.14 1.168 0.297v0c0.102 0.259 0.251 0.915 0.447 1.967v0c0.275 1.532 0.522 2.574 0.739 3.129v0c0.074 0.189 0.18 0.32 0.319 0.395 0.138 0.075 0.281 0.083 0.428 0.025v0c0.236-0.093 0.458-0.357 0.668-0.793 0.218-0.433 0.478-1.103 0.782-2.011v0c0.08-0.229 0.212-0.379 0.394-0.451v0c0.165-0.065 0.321-0.041 0.467 0.071 0.152 0.11 0.279 0.295 0.381 0.555v0c0.195 0.495 0.228 0.927 0.102 1.297v0c-0.259 0.83-0.587 1.571-0.984 2.224-0.403 0.655-0.869 1.087-1.4 1.295v0c-0.407 0.16-0.835 0.168-1.286 0.025-0.451-0.143-0.856-0.422-1.217-0.838v0c-0.235 1.29-0.841 2.127-1.82 2.512zM117.581 164.314c0.277-0.109 0.476-0.374 0.596-0.796 0.114-0.419 0.123-0.916 0.027-1.49v0l-0.652-3.684c-0.514 0.216-0.918 0.599-1.212 1.15-0.288 0.549-0.44 1.183-0.456 1.904-0.016 0.721 0.112 1.429 0.386 2.125v0c0.151 0.383 0.338 0.636 0.564 0.758 0.227 0.128 0.477 0.139 0.747 0.033zM133.474 158.623c-0.408 0.301-0.852 0.302-1.332 0.003-0.479-0.308-1.066-0.933-1.761-1.876v0c-1.026-1.391-1.801-2.858-2.325-4.4v0c-0.138-0.379-0.151-0.723-0.041-1.032 0.114-0.304 0.37-0.603 0.767-0.896v0c0.214-0.158 0.385-0.241 0.513-0.249 0.124-0.013 0.241 0.054 0.35 0.203v0c0.128 0.173 0.332 0.621 0.613 1.342v0c0.209 0.507 0.397 0.939 0.565 1.295 0.167 0.365 0.405 0.799 0.713 1.303v0c-0.331-1.046-0.508-2.006-0.529-2.879-0.026-0.878 0.069-1.613 0.285-2.205 0.207-0.594 0.5-1.03 0.877-1.308v0c0.372-0.274 0.701-0.383 0.987-0.326 0.277 0.055 0.547 0.261 0.81 0.618v0c0.252 0.341 0.607 1.036 1.064 2.083v0c0.2 0.442 0.354 0.774 0.461 0.994v0c-0.435-1.71-0.546-3.103-0.333-4.181 0.209-1.082 0.596-1.832 1.162-2.249v0c0.698-0.515 1.305-0.423 1.82 0.275v0c0.304 0.413 0.742 1.251 1.311 2.514v0c0.484 1.083 0.837 1.775 1.059 2.076v0c0.316 0.428 0.629 0.527 0.94 0.298v0c0.214-0.158 0.369-0.476 0.463-0.956 0.104-0.478 0.185-1.195 0.244-2.15v0c0.018-0.242 0.107-0.421 0.264-0.538v0c0.138-0.101 0.294-0.119 0.47-0.051 0.176 0.067 0.346 0.213 0.511 0.437v0c0.316 0.428 0.46 0.837 0.433 1.227v0c-0.041 0.904-0.194 1.732-0.457 2.485-0.263 0.753-0.731 1.377-1.404 1.873v0c-0.545 0.402-1.073 0.551-1.582 0.448-0.508-0.113-0.984-0.47-1.428-1.072v0c-0.222-0.301-0.543-0.89-0.962-1.769v0c-0.359-0.774-0.632-1.289-0.82-1.543v0c-0.128-0.173-0.25-0.217-0.367-0.131v0c-0.138 0.101-0.202 0.425-0.194 0.97 0.007 0.554 0.099 1.217 0.277 1.991 0.181 0.779 0.431 1.555 0.748 2.328v0c0.259 0.596 0.375 1.037 0.351 1.323-0.034 0.285-0.222 0.553-0.563 0.805v0c-0.352 0.259-0.741 0.287-1.167 0.081-0.421-0.209-0.809-0.552-1.162-1.031v0c-0.301-0.408-0.681-1.036-1.142-1.884v0c-0.422-0.743-0.712-1.222-0.87-1.436v0c-0.128-0.173-0.25-0.217-0.368-0.13v0c-0.158 0.117-0.219 0.461-0.183 1.032 0.037 0.563 0.163 1.229 0.377 2 0.21 0.765 0.461 1.489 0.752 2.171v0c0.251 0.586 0.364 1.026 0.337 1.322-0.025 0.286-0.203 0.551-0.534 0.795zM144.331 135.276c-0.363 0.431-0.734 0.669-1.112 0.715-0.378 0.046-0.746-0.082-1.105-0.384v0c-0.353-0.298-0.53-0.687-0.531-1.169-0.005-0.485 0.167-0.936 0.519-1.351v0c0.314-0.373 0.663-0.6 1.047-0.683 0.38-0.077 0.737 0.025 1.071 0.307v0c0.407 0.343 0.616 0.747 0.629 1.213 0.022 0.466-0.151 0.916-0.518 1.352zM152.404 142.293c-0.559 0.663-1.196 0.947-1.909 0.851-0.723-0.096-1.469-0.468-2.239-1.117v0c-0.455-0.384-0.992-0.936-1.61-1.656-0.619-0.72-1.16-1.434-1.625-2.14v0c-0.252-0.37-0.375-0.68-0.37-0.933 0.01-0.257 0.155-0.552 0.437-0.886v0c0.437-0.518 0.827-0.632 1.171-0.343v0c0.257 0.216 0.766 0.811 1.527 1.785v0c0.914 1.185 1.57 1.945 1.967 2.279v0c0.305 0.257 0.57 0.414 0.795 0.471 0.234 0.056 0.433-0.012 0.596-0.205v0c0.155-0.184 0.219-0.52 0.191-1.008-0.019-0.488-0.111-1.195-0.275-2.12v0c-0.038-0.239 0.006-0.434 0.132-0.584v0c0.11-0.131 0.258-0.184 0.445-0.159 0.186 0.025 0.386 0.127 0.599 0.306v0c0.407 0.343 0.642 0.707 0.706 1.092v0c0.376 2.04 0.197 3.495-0.538 4.367zM160.155 131.189c-0.29 0.527-0.766 0.821-1.43 0.883-0.666 0.067-1.359-0.097-2.08-0.494v0c-0.871-0.479-1.638-0.977-2.301-1.494-0.663-0.516-1.329-1.132-1.998-1.847v0c-0.285-0.309-0.448-0.611-0.487-0.908-0.037-0.288 0.07-0.659 0.321-1.114v0c0.14-0.255 0.28-0.41 0.417-0.464 0.133-0.057 0.282-0.04 0.449 0.052v0c0.094 0.052 0.373 0.288 0.835 0.709v0c0.369 0.355 0.709 0.661 1.022 0.92v0c1.092 0.905 1.844 1.47 2.255 1.696v0c0.244 0.134 0.429 0.2 0.553 0.196 0.133-0.006 0.235-0.073 0.306-0.201v0c0.095-0.172 0.039-0.485-0.167-0.937-0.203-0.459-0.579-1.03-1.127-1.715-0.545-0.69-1.258-1.458-2.137-2.304v0c-0.298-0.287-0.472-0.567-0.524-0.841-0.043-0.277 0.041-0.606 0.251-0.989v0c0.147-0.266 0.282-0.434 0.407-0.503 0.119-0.072 0.267-0.059 0.445 0.039v0c0.289 0.159 1.005 0.741 2.15 1.747v0c1.312 1.149 2.143 1.819 2.493 2.011v0c0.222 0.122 0.42 0.17 0.594 0.143 0.174-0.027 0.302-0.116 0.384-0.266v0c0.128-0.233 0.137-0.59 0.026-1.07-0.109-0.472-0.337-1.154-0.685-2.046v0c-0.085-0.227-0.08-0.427 0.015-0.599v0c0.085-0.155 0.22-0.236 0.405-0.244 0.188-0.012 0.403 0.048 0.647 0.183v0c0.466 0.256 0.768 0.567 0.908 0.933v0c0.341 0.838 0.55 1.654 0.626 2.448 0.076 0.794-0.087 1.557-0.49 2.289v0c-0.308 0.56-0.748 0.853-1.318 0.879-0.576 0.023-1.253-0.18-2.03-0.607v0c0.678 0.633 1.122 1.264 1.333 1.893 0.205 0.626 0.182 1.166-0.068 1.622zM164.933 107.918c0.05-0.164 0.165-0.271 0.346-0.321 0.181-0.051 0.405-0.036 0.671 0.046v0c0.509 0.155 0.869 0.397 1.08 0.726v0c0.506 0.75 0.876 1.512 1.111 2.285 0.234 0.773 0.227 1.569-0.023 2.386v0c-0.34 1.115-1.098 1.787-2.273 2.018-1.184 0.235-2.584 0.106-4.202-0.387v0c-1.551-0.473-3.255-1.214-5.111-2.223-1.865-1.005-3.39-2.116-4.576-3.331-1.185-1.215-1.614-2.362-1.285-3.441v0c0.186-0.612 0.618-1.007 1.295-1.184 0.669-0.174 1.53-0.1 2.584 0.222v0c1.514 0.462 3.144 1.415 4.887 2.86 1.736 1.449 3.364 3.19 4.883 5.222v0c0.549 0.068 0.965 0.036 1.251-0.096 0.287-0.138 0.481-0.373 0.582-0.706v0c0.159-0.521 0.147-1.024-0.036-1.51-0.177-0.484-0.536-1.14-1.078-1.967v0c-0.128-0.211-0.163-0.41-0.106-0.599zM152.434 106.67c-0.089 0.291 0.338 0.782 1.279 1.473 0.947 0.693 2.16 1.416 3.638 2.171 1.478 0.755 2.93 1.366 4.356 1.834v0c-1.215-1.357-2.485-2.532-3.811-3.525-1.334-0.989-2.615-1.671-3.845-2.046v0c-0.969-0.295-1.508-0.264-1.617 0.093z" fill="#ff0000" data-fill-palette-color="primary"></path><path d="M89.212 17.173C87.439 17.181 86.016 16.848 84.943 16.176 83.876 15.509 83.34 14.482 83.333 13.096V13.096C83.33 12.361 83.454 11.8 83.706 11.413 83.957 11.019 84.33 10.821 84.824 10.819V10.819C85.185 10.817 85.48 10.911 85.709 11.1 85.931 11.289 86.043 11.529 86.044 11.82V11.82C86.046 12.086 86.028 12.321 85.991 12.523V12.523C85.991 12.574 85.982 12.666 85.963 12.799 85.945 12.932 85.936 13.071 85.937 13.217V13.217C85.939 13.819 86.245 14.267 86.855 14.562 87.464 14.85 88.313 14.992 89.402 14.987V14.987C90.542 14.982 91.431 14.776 92.069 14.368 92.706 13.953 93.024 13.382 93.02 12.654V12.654C93.018 12.198 92.871 11.806 92.578 11.478 92.279 11.156 91.911 10.885 91.473 10.666 91.028 10.446 90.407 10.176 89.607 9.857V9.857C88.573 9.463 87.733 9.086 87.085 8.728 86.438 8.37 85.881 7.882 85.416 7.263 84.951 6.645 84.717 5.877 84.713 4.958V4.958C84.708 3.996 84.964 3.14 85.48 2.39 85.99 1.641 86.728 1.058 87.695 0.642 88.656 0.22 89.792 0.006 91.102 0V0C92.078-0.004 92.971 0.137 93.783 0.425 94.601 0.706 95.255 1.141 95.746 1.727 96.236 2.308 96.483 3.025 96.487 3.88V3.88C96.49 4.722 96.366 5.359 96.115 5.791 95.864 6.217 95.491 6.43 94.997 6.433V6.433C94.649 6.434 94.357 6.328 94.122 6.113 93.886 5.906 93.768 5.653 93.767 5.355V5.355C93.766 5.102 93.787 4.867 93.83 4.652V4.652C93.866 4.253 93.884 3.999 93.884 3.892V3.892C93.881 3.335 93.604 2.908 93.052 2.613 92.506 2.324 91.825 2.182 91.008 2.185V2.185C89.861 2.19 88.985 2.403 88.379 2.824 87.773 3.251 87.472 3.844 87.475 4.604V4.604C87.478 5.111 87.638 5.544 87.956 5.903 88.268 6.263 88.659 6.562 89.128 6.801 89.598 7.039 90.255 7.324 91.098 7.656V7.656C92.113 8.063 92.929 8.433 93.545 8.766 94.16 9.093 94.685 9.543 95.118 10.118 95.557 10.692 95.779 11.397 95.783 12.233V12.233C95.79 13.81 95.197 15.025 94.004 15.879 92.817 16.733 91.22 17.164 89.212 17.173Z" fill="#ff0000" data-fill-palette-color="primary"></path><path d="M6.55 89.311c0-3.587 2.908-6.495 6.495-6.495 3.587 0 6.495 2.908 6.495 6.495 0 3.587-2.908 6.495-6.495 6.496-3.587 0-6.495-2.908-6.495-6.496zM160.28 89.311c0-3.587 2.908-6.495 6.495-6.495 3.587 0 6.495 2.908 6.495 6.495 0 3.587-2.908 6.495-6.495 6.496-3.587 0-6.495-2.908-6.495-6.496z" fill="#ff0000" data-fill-palette-color="primary"></path></svg></g></svg></g></svg></g><g></g></svg></g></svg></g></svg></g><defs></defs></svg><rect width="320" height="360" fill="none" stroke="none" visibility="hidden"></rect></g></svg></g></svg>